<?xml version="1.0" encoding="UTF-8"?>
<svg width="192px" height="157px" viewBox="0 0 192 157" version="1.1" xmlns="http://www.w3.org/2000/svg" xmlns:xlink="http://www.w3.org/1999/xlink">
    <title>Group 10</title>
    <defs>
        <polygon id="path-1" points="0 -8.48649119e-14 115.903839 -8.48649119e-14 115.903839 112.739629 0 112.739629"></polygon>
        <polygon id="path-3" points="3.53473074e-15 0 21.7573097 0 21.7573097 14.7979142 3.53473074e-15 14.7979142"></polygon>
        <polygon id="path-5" points="0 -8.48649119e-14 192 -8.48649119e-14 192 156.997412 0 156.997412"></polygon>
        <polygon id="path-7" points="0 0 38.9725273 0 38.9725273 62.8058126 0 62.8058126"></polygon>
        <polygon id="path-9" points="0 -8.48649119e-14 38.9736217 -8.48649119e-14 38.9736217 74.1831579 0 74.1831579"></polygon>
        <polygon id="path-11" points="0 0 31.2390712 0 31.2390712 19.5401501 0 19.5401501"></polygon>
    </defs>
    <g id="Letters-v2" stroke="none" stroke-width="1" fill="none" fill-rule="evenodd">
        <g id="Visual-I" transform="translate(0.000000, -587.000000)">
            <g id="Group-10" transform="translate(0.000000, 587.000000)">
                <g id="Group-40" transform="translate(0.000000, 44.260371)">
                    <mask id="mask-2" fill="white">
                        <use xlink:href="#path-1"></use>
                    </mask>
                    <g id="Clip-39"></g>
                    <path d="M-9.97873319,108.8228 C-9.97873319,81.7803302 11.9417464,59.8547297 38.9752136,59.8547297 C52.4894599,59.8547297 64.7262054,65.3338904 73.5861306,74.1980875 L89.885209,57.8939764 C76.8435584,44.8435214 58.8331862,36.7636256 38.9712338,36.7636256 C-0.746701158,36.7636256 -33.0613006,69.0871901 -33.0613006,108.8228 C-33.0613006,148.55841 -0.746701158,180.885956 38.9712338,180.885956 C58.8331862,180.885956 76.8435584,172.802079 89.885209,159.755605 L73.5861306,143.451494 C64.7291902,152.31171 52.4894599,157.793856 38.9752136,157.793856 C11.9417464,157.793856 -9.97873319,135.866265 -9.97873319,108.8228 M100.016665,47.757778 L115.903839,31.8657237 C96.2219707,12.1765762 69.0263286,-8.48649119e-14 38.9752136,-8.48649119e-14 C-21.1280112,-8.48649119e-14 -69.8073551,48.697347 -69.8073551,108.8228 C-69.8073551,168.948253 -21.1280112,217.6456 38.9752136,217.6456 C69.0263286,217.6456 96.2219707,205.473005 115.903839,185.779876 L100.016665,169.886827 C84.375241,185.534036 62.783091,195.222346 38.9712338,195.222346 C-8.64949569,195.222346 -47.396371,156.465122 -47.396371,108.8228 C-47.396371,61.1804775 -8.64949569,22.4232536 38.9712338,22.4232536 C62.783091,22.4232536 84.3792207,32.1145502 100.016665,47.757778" id="Fill-38" fill="#0E2240" mask="url(#mask-2)"></path>
                </g>
                <g id="Group-43" transform="translate(28.094967, 142.202086)">
                    <mask id="mask-4" fill="white">
                        <use xlink:href="#path-3"></use>
                    </mask>
                    <g id="Clip-42"></g>
                    <path d="M10.8786548,0 C4.89609114,0 3.53473074e-15,4.89790187 3.53473074e-15,10.8826781 C3.53473074e-15,16.8684497 4.89609114,21.7663515 10.8786548,21.7663515 C16.8612186,21.7663515 21.7573097,16.8684497 21.7573097,10.8826781 C21.7573097,4.89790187 16.8612186,0 10.8786548,0" id="Fill-41" fill="#0E2240" mask="url(#mask-4)"></path>
                </g>
                <g id="Group-46" transform="translate(0.000000, 0.002588)">
                    <mask id="mask-6" fill="white">
                        <use xlink:href="#path-5"></use>
                    </mask>
                    <g id="Clip-45"></g>
                    <path d="M38.9725273,25.4032004 C-31.403435,25.4032004 -88.6571567,82.6790917 -88.6571567,153.080086 C-88.6571567,223.482076 -31.403435,280.760953 38.9725273,280.760953 C109.351474,280.760953 166.606191,223.482076 166.606191,153.080086 C166.606191,82.6790917 109.351474,25.4032004 38.9725273,25.4032004 M38.9725273,306.164153 C-45.4091808,306.164153 -114.054945,237.493001 -114.054945,153.080086 C-114.054945,68.6711521 -45.4091808,-8.48649119e-14 38.9725273,-8.48649119e-14 C123.354235,-8.48649119e-14 192,68.6711521 192,153.080086 C192,237.493001 123.354235,306.164153 38.9725273,306.164153" id="Fill-44" fill="#0E2240" mask="url(#mask-6)"></path>
                </g>
                <path d="M147.08202,44.8435214 C119.37697,17.1501213 81.1404977,0 38.9750146,0 L38.9750146,25.4071817 C74.143097,25.4071817 106.032858,39.7107272 129.140299,62.8058126 L147.08202,44.8435214 Z" id="Fill-47" fill="#0E2240"></path>
                <path d="M89.861629,102.133048 C76.8199784,89.0975229 58.8205504,81.020613 38.9725273,81.020613 L38.9725273,104.112712 C52.4837887,104.112712 64.7135697,109.591873 73.57051,118.445122 L89.861629,102.133048 Z M115.869315,76.0938472 C96.1914261,56.4236106 69.0097131,44.2609687 38.9725273,44.2609687 L38.9725273,66.6852176 C62.7704553,66.6852176 84.3516609,76.3655658 99.9891054,91.993864 L115.869315,76.0938472 Z" id="Fill-49" fill="#0E2240"></path>
                <g id="Group-53" transform="translate(0.000000, 0.001294)">
                    <mask id="mask-8" fill="white">
                        <use xlink:href="#path-7"></use>
                    </mask>
                    <g id="Clip-52"></g>
                    <path d="M38.9725273,0 C-3.19295584,0 -41.4294278,17.1501213 -69.1344783,44.8425261 L-51.1927568,62.8058126 C-28.084321,39.7107272 3.80444489,25.4032004 38.9725273,25.4032004 L38.9725273,0 Z" id="Fill-51" fill="#0E2240" mask="url(#mask-8)"></path>
                </g>
                <g id="Group-56" transform="translate(0.000000, 44.261168)">
                    <mask id="mask-10" fill="white">
                        <use xlink:href="#path-9"></use>
                    </mask>
                    <g id="Clip-55"></g>
                    <path d="M38.9736217,36.7626302 C19.1255985,36.7626302 1.12617061,44.8355589 -11.91548,57.8710844 L4.37663388,74.1831579 C13.2335742,65.3299091 25.46634,59.8507484 38.9736217,59.8507484 L38.9736217,36.7626302 Z M38.9736217,22.4232536 L38.9736217,-8.48649119e-14 C8.94041564,-8.48649119e-14 -18.2412974,12.1616466 -37.9231659,31.8328786 L-22.0429565,47.7319 C-6.40551196,32.1026066 15.1756937,22.4232536 38.9736217,22.4232536 L38.9736217,22.4232536 Z" id="Fill-54" fill="#0E2240" mask="url(#mask-10)"></path>
                </g>
                <g id="Group-59" transform="translate(23.354086, 137.459850)">
                    <mask id="mask-12" fill="white">
                        <use xlink:href="#path-11"></use>
                    </mask>
                    <g id="Clip-58"></g>
                    <path d="M15.6195356,0 C7.03023369,0 0,7.03283369 0,15.6253122 C0,24.2187861 7.03023369,31.2476385 15.6195356,31.2476385 C24.2088375,31.2476385 31.2390712,24.2187861 31.2390712,15.6253122 C31.2390712,7.03283369 24.2088375,0 15.6195356,0" id="Fill-57" fill="#0E2240" mask="url(#mask-12)"></path>
                </g>
            </g>
        </g>
    </g>
</svg>