<?xml version="1.0" encoding="UTF-8"?>
<svg width="72px" height="59px" viewBox="0 -8 72 59" version="1.1" xmlns="http://www.w3.org/2000/svg" xmlns:xlink="http://www.w3.org/1999/xlink">
    <title>Group 10</title>
    <defs>
        <polygon id="path-1" points="0 0 43.4639397 0 43.4639397 42.3671215 0 42.3671215"></polygon>
        <polygon id="path-3" points="0 0 8.15899113 0 8.15899113 5.56099959 0 5.56099959"></polygon>
        <polygon id="path-5" points="0 0 72 0 72 58.9990275 0 58.9990275"></polygon>
        <polygon id="path-7" points="0 0 14.6146977 0 14.6146977 23.6021843 0 23.6021843"></polygon>
        <polygon id="path-9" points="0 0 14.6151081 0 14.6151081 27.8777472 0 27.8777472"></polygon>
        <polygon id="path-11" points="0 0 11.7146517 0 11.7146517 7.34311375 0 7.34311375"></polygon>
    </defs>
    <g id="e-mail-template-basic" stroke="none" stroke-width="1" fill="none" fill-rule="evenodd">
        <g id="Visual-I" transform="translate(0.000000, -731.000000)">
            <g id="Group-10" transform="translate(0.000000, 731.000000)">
                <g id="Group-40" transform="translate(0.000000, 16.632878)">
                    <mask id="mask-2" fill="white">
                        <use xlink:href="#path-1"></use>
                    </mask>
                    <g id="Clip-39"></g>
                    <path d="M-3.74202495,40.8951924 C-3.74202495,30.7327356 4.47815489,22.4931787 14.6157051,22.4931787 C19.6835475,22.4931787 24.272327,24.5522263 27.594799,27.8833577 L33.7069534,21.7563351 C28.8163344,16.852024 22.0624448,13.81563 14.6142127,13.81563 C-0.280012934,13.81563 -12.3979877,25.962702 -12.3979877,40.8951924 C-12.3979877,55.8276827 -0.280012934,67.9762509 14.6142127,67.9762509 C22.0624448,67.9762509 28.8163344,64.9383607 33.7069534,60.0355457 L27.594799,53.9085231 C24.2734463,57.2381584 19.6835475,59.2983281 14.6157051,59.2983281 C4.47815489,59.2983281 -3.74202495,51.0580232 -3.74202495,40.8951924 M37.5062495,17.9471904 L43.4639397,11.9750172 C36.083239,4.5759108 25.8848732,0 14.6157051,0 C-7.92300422,0 -26.1777582,18.3002769 -26.1777582,40.8951924 C-26.1777582,63.4901078 -7.92300422,81.7903847 14.6157051,81.7903847 C25.8848732,81.7903847 36.083239,77.21597 43.4639397,69.8153675 L37.5062495,63.8428202 C31.6407154,69.7229816 23.5436591,73.3638117 14.6142127,73.3638117 C-3.24356088,73.3638117 -17.7736391,58.7989951 -17.7736391,40.8951924 C-17.7736391,22.9913897 -3.24356088,8.42657303 14.6142127,8.42657303 C23.5436591,8.42657303 31.6422078,12.0685252 37.5062495,17.9471904" id="Fill-38" fill="#0E2240" mask="url(#mask-2)"></path>
                </g>
                <g id="Group-43" transform="translate(10.535613, 53.439000)">
                    <mask id="mask-4" fill="white">
                        <use xlink:href="#path-3"></use>
                    </mask>
                    <g id="Clip-42"></g>
                    <path d="M4.07949557,0 C1.83603418,0 0,1.8406128 0,4.08966885 C0,6.33909892 1.83603418,8.17971173 4.07949557,8.17971173 C6.32295696,8.17971173 8.15899113,6.33909892 8.15899113,4.08966885 C8.15899113,1.8406128 6.32295696,0 4.07949557,0" id="Fill-41" fill="#0E2240" mask="url(#mask-4)"></path>
                </g>
                <g id="Group-46" transform="translate(0.000000, 0.000972)">
                    <mask id="mask-6" fill="white">
                        <use xlink:href="#path-5"></use>
                    </mask>
                    <g id="Clip-45"></g>
                    <path d="M14.6146977,9.54642565 C-11.7762881,9.54642565 -33.2464338,31.0704867 -33.2464338,57.5269113 C-33.2464338,83.9837099 -11.7762881,105.508893 14.6146977,105.508893 C41.0068029,105.508893 62.4773216,83.9837099 62.4773216,57.5269113 C62.4773216,31.0704867 41.0068029,9.54642565 14.6146977,9.54642565 M14.6146977,115.055319 C-17.0284428,115.055319 -42.7706045,89.2489622 -42.7706045,57.5269113 C-42.7706045,25.8063565 -17.0284428,0 14.6146977,0 C46.2578382,0 72,25.8063565 72,57.5269113 C72,89.2489622 46.2578382,115.055319 14.6146977,115.055319" id="Fill-44" fill="#0E2240" mask="url(#mask-6)"></path>
                </g>
                <path d="M55.1557576,16.852024 C44.7663636,6.44495006 30.4276866,0 14.6156305,0 L14.6156305,9.54792178 C27.8036614,9.54792178 39.7623217,14.9231395 48.427612,23.6021843 L55.1557576,16.852024 Z" id="Fill-47" fill="#0E2240"></path>
                <path d="M33.6981109,38.3812093 C28.8074919,33.4825086 22.0577064,30.4472367 14.6146977,30.4472367 L14.6146977,39.1251594 C19.6814208,39.1251594 24.2675886,41.1842071 27.5889413,44.5112241 L33.6981109,38.3812093 Z M43.4509931,28.595777 C36.0717848,21.2037772 25.8786424,16.6331029 14.6146977,16.6331029 L14.6146977,25.0600499 C23.5389207,25.0600499 31.6318728,28.6978878 37.4959145,34.5709425 L43.4509931,28.595777 Z" id="Fill-49" fill="#0E2240"></path>
                <g id="Group-53" transform="translate(0.000000, 0.000486)">
                    <mask id="mask-8" fill="white">
                        <use xlink:href="#path-7"></use>
                    </mask>
                    <g id="Clip-52"></g>
                    <path d="M14.6146977,0 C-1.19735844,0 -15.5360354,6.44495006 -25.9254294,16.8516499 L-19.1972838,23.6021843 C-10.5316204,14.9231395 1.42666683,9.54642565 14.6146977,9.54642565 L14.6146977,0 Z" id="Fill-51" fill="#0E2240" mask="url(#mask-8)"></path>
                </g>
                <g id="Group-56" transform="translate(0.000000, 16.633178)">
                    <mask id="mask-10" fill="white">
                        <use xlink:href="#path-9"></use>
                    </mask>
                    <g id="Clip-55"></g>
                    <path d="M14.6151081,13.815256 C7.17209944,13.815256 0.422313978,16.8490317 -4.468305,21.7477324 L1.6412377,27.8777472 C4.96259032,24.5507302 9.5498775,22.4916825 14.6151081,22.4916825 L14.6151081,13.815256 Z M14.6151081,8.42657303 L14.6151081,0 C3.35265586,0 -6.84048652,4.57030032 -14.2211872,11.9626741 L-8.26610867,17.9374656 C-2.40206698,12.0640369 5.69088512,8.42657303 14.6151081,8.42657303 L14.6151081,8.42657303 Z" id="Fill-54" fill="#0E2240" mask="url(#mask-10)"></path>
                </g>
                <g id="Group-59" transform="translate(8.757782, 51.656886)">
                    <mask id="mask-12" fill="white">
                        <use xlink:href="#path-11"></use>
                    </mask>
                    <g id="Clip-58"></g>
                    <path d="M5.85732585,0 C2.63633763,0 0,2.64291203 0,5.87193262 C0,9.10132724 2.63633763,11.7427431 5.85732585,11.7427431 C9.07831408,11.7427431 11.7146517,9.10132724 11.7146517,5.87193262 C11.7146517,2.64291203 9.07831408,0 5.85732585,0" id="Fill-57" fill="#0E2240" mask="url(#mask-12)"></path>
                </g>
            </g>
        </g>
    </g>
</svg>