<?xml version="1.0" encoding="UTF-8"?>
<svg width="129px" height="103px" viewBox="0 0 129 103" version="1.1" xmlns="http://www.w3.org/2000/svg" xmlns:xlink="http://www.w3.org/1999/xlink">
    <title>Group 3</title>
    <g id="Letters-v2" stroke="none" stroke-width="1" fill="none" fill-rule="evenodd">
        <g id="Visual-I" transform="translate(-28.000000, -27.000000)">
            <g id="Group-3" transform="translate(28.873007, 27.276174)">
                <path d="M74.3137971,16.075685 L77.0801271,13.2990173 C73.6529217,9.8590045 68.917746,7.73245114 63.6852661,7.73245114 C53.2209055,7.73245114 44.7451628,16.2398674 44.7451628,26.7439344 C44.7451628,37.2474001 53.2209055,45.7548163 63.6852661,45.7548163 C68.917746,45.7548163 73.6529217,43.628263 77.0801271,40.1882502 L74.3137971,37.4115825 C71.5906068,40.1449493 67.8314657,41.8378927 63.6852661,41.8378927 C55.3934661,41.8378927 48.6475035,35.0667206 48.6475035,26.7439344 C48.6475035,18.4205468 55.3934661,11.6499762 63.6852661,11.6499762 C67.8314657,11.6499762 71.5906068,13.3423182 74.3137971,16.075685 M55.1621897,26.7439344 C55.1621897,22.0193294 58.9788503,18.1884061 63.6852661,18.1884061 C66.0387736,18.1884061 68.169393,19.1464376 69.7122346,20.6944434 L72.5498648,17.846209 C70.2790416,15.5662985 67.1430288,14.1548107 63.6852661,14.1548107 C56.7697408,14.1548107 51.1430124,19.8019646 51.1430124,26.7439344 C51.1430124,33.6853029 56.7697408,39.3330582 63.6852661,39.3330582 C67.1430288,39.3330582 70.2790416,37.920969 72.5498648,35.6416598 L69.7122346,32.7928241 C68.1699921,34.3414312 66.0387736,35.2988614 63.6852661,35.2988614 C58.9788503,35.2988614 55.1621897,31.467938 55.1621897,26.7439344" id="Fill-8" fill="#2793A0"></path>
                <path d="M63.6854459,24.8426658 C62.6435035,24.8426658 61.7914955,25.6984592 61.7914955,26.7436939 C61.7914955,27.7895299 62.6435035,28.6447219 63.6854459,28.6447219 C64.7273882,28.6447219 65.5793963,27.7895299 65.5793963,26.7436939 C65.5793963,25.6984592 64.7273882,24.8426658 63.6854459,24.8426658" id="Fill-10" fill="#000000"></path>
                <path d="M63.6852661,53.4873877 C48.993819,53.4873877 37.0417397,41.4900424 37.0417397,26.7436939 C37.0417397,11.9973453 48.993819,0 63.6852661,0 C78.3767132,0 90.3293918,11.9973453 90.3293918,26.7436939 C90.3293918,41.4900424 78.3767132,53.4873877 63.6852661,53.4873877 M41.4629545,26.7436939 C41.4629545,39.0429424 51.4318084,49.0490496 63.6852661,49.0490496 C75.9387239,49.0490496 85.9075778,39.0429424 85.9075778,26.7436939 C85.9075778,14.4444453 75.9387239,4.43833818 63.6852661,4.43833818 C51.4318084,4.43833818 41.4629545,14.4444453 41.4629545,26.7436939 Z" id="Fill-12" fill="#000000"></path>
                <path d="M63.6854459,41.8377122 L63.6854459,45.7552373 C68.91493,45.7552373 73.6471098,43.6304881 77.0737161,40.1934824 L74.3091836,37.4162133 C71.5859932,40.1465731 67.8292488,41.8377122 63.6854459,41.8377122 L63.6854459,41.8377122 Z M63.6854459,39.3328778 C67.1414111,39.3328778 70.2750272,37.9219914 72.5458504,35.6450878 L69.7094185,32.7956506 C68.1671761,34.3424536 66.0377551,35.2986809 63.6854459,35.2986809 L63.6854459,39.3328778 Z" id="Fill-14" fill="#F73102"></path>
                <path d="M50.2969959,40.1937831 C53.7236022,43.6301874 58.455782,45.7549366 63.6852661,45.7549366 L63.6852661,41.8380129 L63.6852661,41.8380129 C59.5414632,41.8380129 55.7841196,40.1468738 53.0615284,37.416514 L50.2969959,40.1937831 Z M63.6852661,39.3325771 L63.6852661,39.3325771 L63.6852661,35.2989816 C61.3335561,35.2989816 59.2035359,34.3421529 57.6612935,32.7953499 L54.8248616,35.6447871 C57.0956848,37.9222921 60.2293009,39.3325771 63.6852661,39.3325771 L63.6852661,39.3325771 Z" id="Fill-16" fill="#F39203"></path>
                <path d="M77.0740157,13.2936648 C73.6474094,9.85726044 68.9152296,7.73251128 63.6857455,7.73251128 L63.6857455,11.6494349 C67.8289492,11.6494349 71.5862928,13.3411755 74.308884,16.0715353 L77.0740157,13.2936648 Z M72.54615,17.8426608 C70.2753268,15.5651558 67.1417107,14.1548708 63.6857455,14.1548708 L63.6857455,18.1884662 C66.0374555,18.1884662 68.1668765,19.145295 69.7091189,20.6920979 L72.54615,17.8426608 Z" id="Fill-18" fill="#F7C542"></path>
                <path d="M63.6854459,11.6496755 L63.6854459,7.73215043 C58.4559618,7.73215043 53.723782,9.8568996 50.2971757,13.2939054 L53.0617082,16.0711745 C55.7842994,13.3408147 59.5416429,11.6496755 63.6854459,11.6496755 Z M63.6854459,14.15451 C60.2294807,14.15451 57.0958645,15.564795 54.8250413,17.8422999 L57.6614732,20.6923385 C59.2037157,19.1455355 61.3337359,18.1887068 63.6854459,18.1887068 L63.6854459,14.15451 Z" id="Fill-20" fill="#00BB6A"></path>
                <path d="M63.6854459,24.0142362 C62.1899381,24.0142362 60.9658505,25.2422967 60.9658505,26.7439946 C60.9658505,28.2450911 62.1899381,29.4731516 63.6854459,29.4731516 C65.1809537,29.4731516 66.4050412,28.2450911 66.4050412,26.7439946 C66.4050412,25.2422967 65.1809537,24.0142362 63.6854459,24.0142362" id="Fill-22" fill="#000000"></path>
                <path d="M0.0576992804,80.6637294 C0.793469958,83.9305387 3.80246047,86.864172 9.52924885,86.864172 C14.7119983,86.864172 18.0714985,84.3467081 18.0714985,80.5398408 C18.0714985,76.6734348 15.288392,75.3545628 10.9366799,74.2756497 C7.22547177,73.3464854 5.72157568,73.0764564 5.72157568,71.6679756 C5.72157568,70.2294248 7.38544797,69.809647 8.60114724,69.809647 C10.4567513,69.809647 11.881558,70.4417193 12.2015104,71.6709826 L17.0589151,70.4332997 C16.5154753,67.8550943 14.3285348,65.3135744 8.50528135,65.3135744 C3.73835015,65.3135744 0.282984113,68.2808861 0.282984113,71.3678766 C0.282984113,75.6841304 3.67423984,76.7931136 7.28958208,77.6928092 C10.3291298,78.4415533 12.6329069,78.4716233 12.6329069,80.5398408 C12.6329069,81.708964 11.4166085,82.3680993 9.72098063,82.3680993 C7.1937162,82.3680993 5.59455338,81.0486259 5.08286921,79.8801041 L0.0576992804,80.6637294 Z" id="Fill-24" fill="#000000"></path>
                <path d="M33.0982964,87.1304723 L33.0982964,84.3201262 C32.4362227,85.1139753 31.6447299,85.7484532 30.7226199,86.2217556 C29.8011091,86.6956595 28.6782799,86.9326114 27.3547315,86.9326114 C26.4559888,86.9326114 25.6111707,86.7978976 24.819678,86.5290715 C24.0275861,86.2602453 23.3361534,85.8567053 22.7453799,85.319053 C22.1546063,84.7807992 21.6872601,84.1216639 21.3451388,83.3404442 C21.0024182,82.5592245 20.8310579,81.6565219 20.8310579,80.6317348 L20.8310579,80.5547555 C20.8310579,79.4283318 21.0197939,78.4552652 21.3984642,77.6349545 C21.7759361,76.8158465 22.3025993,76.136865 22.9760572,75.5986112 C23.649515,75.0609589 24.452991,74.6574189 25.3870842,74.3885927 C26.3205783,74.1197666 27.3547315,73.9850528 28.4889448,73.9850528 C29.4577894,73.9850528 30.3032067,74.0620321 31.0239983,74.2159907 C31.7447899,74.3693479 32.4482059,74.5744256 33.133647,74.8306224 L33.133647,74.4848169 C33.133647,73.2549522 32.7909264,72.3203753 32.1054853,71.6798834 C31.4194451,71.0399929 30.4038659,70.7194462 29.056351,70.7194462 C28.0162061,70.7194462 27.1000878,70.8156704 26.308595,71.0075172 C25.5165031,71.1999655 24.6830691,71.4754071 23.808892,71.833842 L22.4619763,67.3768604 C23.501522,66.8909285 24.5890007,66.4934025 25.7238131,66.1860867 C26.8580264,65.8787709 28.2289086,65.7248123 29.8364596,65.7248123 C32.7909264,65.7248123 34.9419173,66.5066334 36.2894321,68.0684713 C37.6363478,69.6309107 38.3104048,71.8085831 38.3104048,74.5996844 L38.3104048,86.1958954 L33.0982964,87.1304723 Z M33.2049472,78.2495861 C32.7316094,78.0192496 32.2055454,77.8340181 31.6267551,77.6926889 C31.0473656,77.5519612 30.4272332,77.4815973 29.7657586,77.4815973 C28.6069797,77.4815973 27.6968529,77.7251646 27.0353783,78.2110965 C26.3733045,78.6982311 26.0425672,79.4024715 26.0425672,80.324419 L26.0425672,80.4013983 C26.0425672,81.1952474 26.3139875,81.8098791 26.8580264,82.2452933 C27.4014661,82.6813089 28.1108737,82.8984146 28.9856499,82.8984146 C30.2618645,82.8984146 31.2840345,82.5658399 32.0521599,81.8994878 C32.8202854,81.2337371 33.2049472,80.3629087 33.2049472,79.2870026 L33.2049472,78.2495861 Z" id="Fill-26" fill="#000000"></path>
                <path d="M64.714686,86.5483764 L64.714686,75.0892849 C64.714686,73.7096713 64.4426666,72.6680451 63.8992268,71.9656089 C63.3551879,71.2631727 62.5750793,70.9119546 61.5595,70.9119546 C60.5427225,70.9119546 59.744639,71.2631727 59.1658487,71.9656089 C58.5864592,72.6680451 58.2976632,73.7096713 58.2976632,75.0892849 L58.2976632,86.5483764 L52.9082029,86.5483764 L52.9082029,75.0892849 C52.9082029,73.7096713 52.6361835,72.6680451 52.0927437,71.9656089 C51.5487048,71.2631727 50.7685962,70.9119546 49.753017,70.9119546 C48.7362394,70.9119546 47.9387551,71.2631727 47.3593656,71.9656089 C46.7799761,72.6680451 46.4911802,73.7096713 46.4911802,75.0892849 L46.4911802,86.5483764 L41.1017199,86.5483764 L41.1017199,67.119521 L46.4911802,65.9558103 L46.4911802,68.8996674 C46.797951,68.4612462 47.1346799,68.0414684 47.5013669,67.6415369 C47.8674548,67.2422067 48.275484,66.8879816 48.7248553,66.5782602 C49.1736275,66.2685388 49.6757251,66.0231672 50.2311481,65.842747 C50.786571,65.6617253 51.4067035,65.5715152 52.0927437,65.5715152 C53.345591,65.5715152 54.4264789,65.8553764 55.3372048,66.4224974 C56.2467324,66.9902198 56.9501484,67.8027123 57.4462543,68.8605764 C58.2736968,67.7774535 59.1952076,66.9583455 60.2119852,66.4032526 C61.2281635,65.848761 62.3863433,65.5715152 63.6865244,65.5715152 C65.6955139,65.5715152 67.2677144,66.2120071 68.4019277,67.4923895 C69.5367401,68.7733733 70.1035471,70.6557579 70.1035471,73.1401447 L70.1035471,86.5483764 L64.714686,86.5483764 Z" id="Fill-28" fill="#000000"></path>
                <path d="M92.1296932,80.8431272 C91.6449713,82.1626007 91.006864,83.2769964 90.2153713,84.1857131 C89.4226802,85.0950312 88.507161,85.7800267 87.4676153,86.2413012 C86.4268713,86.7019742 85.3399918,86.9329121 84.2057785,86.9329121 C82.7635961,86.9329121 81.5760574,86.6274005 80.6425634,86.01758 C79.7084701,85.4077596 78.922969,84.6963024 78.2848617,83.8832085 L78.2848617,91.7194614 L72.8954014,93.277691 L72.8954014,65.9554495 L78.2848617,65.9554495 L78.2848617,68.88788 C78.9463363,67.9226316 79.7438207,67.1287825 80.6779139,66.5057313 C81.611408,65.88268 82.7875626,65.5711544 84.2057785,65.5711544 C85.3160253,65.5711544 86.3915207,65.8020923 87.4316656,66.2627653 C88.4718105,66.7240398 89.3933213,67.4096367 90.1973964,68.3183534 C91.0008724,69.2276715 91.6449713,70.3420672 92.1296932,71.6609392 C92.6138159,72.9804127 92.8564764,74.497747 92.8564764,76.2135436 L92.8564764,76.2905229 C92.8564764,78.0069209 92.6138159,79.5242552 92.1296932,80.8431272 L92.1296932,80.8431272 Z M87.4676153,76.2135436 C87.4676153,75.3625614 87.3435888,74.5825445 87.0949367,73.8734929 C86.8468837,73.1644413 86.5101548,72.5588307 86.0847499,72.0560596 C85.659345,71.5526871 85.1686315,71.1659864 84.6132085,70.895356 C84.0577856,70.6247256 83.4610204,70.488809 82.8229131,70.488809 C82.1848058,70.488809 81.5874415,70.6247256 81.0326177,70.895356 C80.4765955,71.1659864 79.9918737,71.5526871 79.578452,72.0560596 C79.1650304,72.5588307 78.8342931,73.1644413 78.5862401,73.8734929 C78.337588,74.5825445 78.2135615,75.3625614 78.2135615,76.2135436 L78.2135615,76.2905229 C78.2135615,77.1415051 78.337588,77.9221234 78.5862401,78.631175 C78.8342931,79.3402265 79.1650304,79.9458372 79.578452,80.4486083 C79.9918737,80.9519808 80.4765955,81.3380801 81.0326177,81.6093119 C81.5874415,81.8799423 82.1848058,82.0146561 82.8229131,82.0146561 C83.4610204,82.0146561 84.0577856,81.8799423 84.6132085,81.6093119 C85.1686315,81.3380801 85.659345,80.9519808 86.0847499,80.4486083 C86.5101548,79.9458372 86.8468837,79.346842 87.0949367,78.6504198 C87.3435888,77.9539976 87.4676153,77.1673653 87.4676153,76.2905229 L87.4676153,76.2135436 Z" id="Fill-30" fill="#000000"></path>
                <path d="M106.816467,71.6869198 C105.02018,71.6869198 103.607955,72.2762926 102.579794,73.453234 C101.551632,74.6313783 101.037551,76.4620424 101.037551,78.9446251 L101.037551,86.5481359 L95.6480911,86.5481359 L95.6480911,67.1289028 L101.037551,65.9651922 L101.037551,70.1124524 C101.580991,68.704573 102.32515,67.5781492 103.271227,66.7331811 C104.216105,65.8882129 105.492319,65.5045191 107.09987,65.580897 L107.09987,71.6869198 L106.816467,71.6869198 Z" id="Fill-32" fill="#000000"></path>
                <path d="M122.159083,87.1304723 L122.159083,84.3201262 C121.497009,85.1139753 120.705516,85.7484532 119.783406,86.2217556 C118.861896,86.6956595 117.739066,86.9326114 116.415518,86.9326114 C115.516775,86.9326114 114.671957,86.7978976 113.880464,86.5290715 C113.088373,86.2602453 112.39694,85.8567053 111.806166,85.319053 C111.215393,84.7807992 110.748047,84.1216639 110.405925,83.3404442 C110.063205,82.5592245 109.891844,81.6565219 109.891844,80.6317348 L109.891844,80.5547555 C109.891844,79.4283318 110.08058,78.4552652 110.459251,77.6349545 C110.836723,76.8158465 111.363386,76.136865 112.036844,75.5986112 C112.710302,75.0609589 113.513777,74.6574189 114.447871,74.3885927 C115.381365,74.1197666 116.415518,73.9850528 117.549731,73.9850528 C118.519175,73.9850528 119.363993,74.0620321 120.084785,74.2159907 C120.805576,74.3693479 121.508992,74.5744256 122.194433,74.8306224 L122.194433,74.4848169 C122.194433,73.2549522 121.851713,72.3203753 121.166272,71.6798834 C120.480831,71.0399929 119.464652,70.7194462 118.117137,70.7194462 C117.076993,70.7194462 116.160874,70.8156704 115.369382,71.0075172 C114.57729,71.1999655 113.743856,71.4754071 112.869679,71.833842 L111.522763,67.3768604 C112.562309,66.8909285 113.649787,66.4934025 114.7846,66.1860867 C115.918813,65.8787709 117.289695,65.7248123 118.897246,65.7248123 C121.851713,65.7248123 124.002704,66.5066334 125.350219,68.0684713 C126.697134,69.6309107 127.371191,71.8085831 127.371191,74.5996844 L127.371191,85.9661603 L122.159083,87.1304723 Z M122.265734,78.2495861 C121.792396,78.0192496 121.266332,77.8340181 120.687542,77.6926889 C120.108152,77.5519612 119.48802,77.4815973 118.826545,77.4815973 C117.667766,77.4815973 116.757639,77.7251646 116.096165,78.2110965 C115.434091,78.6982311 115.103354,79.4024715 115.103354,80.324419 L115.103354,80.4013983 C115.103354,81.1952474 115.374774,81.8098791 115.918813,82.2452933 C116.462253,82.6813089 117.17166,82.8984146 118.046436,82.8984146 C119.322651,82.8984146 120.344821,82.5658399 121.112946,81.8994878 C121.881072,81.2337371 122.265734,80.3629087 122.265734,79.2870026 L122.265734,78.2495861 Z" id="Fill-34" fill="#000000"></path>
                <path d="M0,100.238966 L0,100.238966 C0.0707010912,100.748954 0.429599003,101.255935 1.33792828,101.255935 C2.19832461,101.255935 2.60695295,100.80308 2.60695295,100.255204 C2.60695295,99.813174 2.44218346,99.4138439 1.41581931,99.1648639 C0.762732958,99.0066955 0.539844773,98.8629607 0.539844773,98.4967076 C0.539844773,98.1244405 0.808269254,97.9049292 1.29418947,97.9049292 C1.84481915,97.9049292 2.07549644,98.1737553 2.1497925,98.5267776 L2.52966108,98.5267776 C2.4823273,98.0775312 2.1372101,97.5928021 1.31036683,97.5928021 C0.519473272,97.5928021 0.149790447,98.0282163 0.149790447,98.5249734 C0.149790447,99.0337585 0.465548711,99.2983749 1.27142132,99.4944316 C2.03655092,99.6784602 2.21629946,99.9063911 2.21629946,100.288882 C2.21629946,100.653932 1.97603558,100.950423 1.35770062,100.950423 C0.793889371,100.950423 0.483523564,100.692422 0.379868575,100.238966 L0,100.238966 Z M4.49970504,98.5790995 C3.72858382,98.5790995 3.30198062,99.1817031 3.30198062,99.928643 C3.30198062,100.703849 3.74715783,101.274578 4.4721436,101.274578 C5.26004135,101.274578 5.67526047,100.649121 5.67526047,99.9220276 C5.67526047,99.1137448 5.20851344,98.5790995 4.49970504,98.5790995 L4.49970504,98.5790995 Z M4.48173019,98.8797999 C5.02037664,98.8797999 5.31276759,99.3332561 5.31276759,99.9274402 C5.31276759,100.546282 5.01678167,100.973878 4.49191594,100.973878 C3.9766368,100.973878 3.66447351,100.517414 3.66447351,99.9268388 C3.66447351,99.3230323 3.93469547,98.8797999 4.48173019,98.8797999 L4.48173019,98.8797999 Z M8.51948149,98.6404424 L8.17196765,98.6404424 L8.17196765,99.9719438 C8.17196765,100.665359 7.96825264,100.961248 7.43080452,100.961248 C6.95207425,100.961248 6.83763434,100.620254 6.83763434,100.261819 L6.83763434,98.6404424 L6.49431464,98.6404424 L6.49431464,100.338798 C6.49431464,101.097766 6.94847928,101.274578 7.35351265,101.274578 C7.79389656,101.274578 8.05393278,101.089347 8.17196765,100.794059 C8.17256681,100.982297 8.17795927,101.145878 8.18814502,101.213235 L8.52487394,101.213235 C8.52427478,101.091151 8.51948149,100.714072 8.51948149,100.462687 L8.51948149,98.6404424 Z M9.23368234,98.936933 L9.70402435,98.936933 L9.70402435,100.646114 C9.70402435,101.065291 9.88856618,101.249319 10.2558524,101.249319 C10.3720897,101.249319 10.5110953,101.2409 10.609957,101.20241 L10.609957,100.926367 C10.5320659,100.948619 10.4296093,100.95343 10.358309,100.95343 C10.1144502,100.95343 10.0521373,100.804884 10.0521373,100.534254 L10.0521373,98.936933 L10.6530966,98.936933 L10.6530966,98.6404424 L10.0521373,98.6404424 L10.0521373,97.8574185 L9.70402435,97.8574185 L9.70402435,98.6404424 L9.23368234,98.6404424 L9.23368234,98.936933 Z M11.3541159,97.4514729 L11.3541159,101.213235 L11.7022289,101.213235 L11.7022289,99.7909222 C11.7022289,99.2021508 11.9586702,98.8918279 12.454177,98.8918279 C12.8634045,98.8918279 13.0773052,99.1594513 13.0773052,99.6357608 L13.0773052,101.213235 L13.4242199,101.213235 L13.4242199,99.5744179 C13.4242199,98.782373 12.9353039,98.5790995 12.5428529,98.5790995 C12.0898866,98.5790995 11.8424328,98.7998136 11.7022289,99.0481921 L11.7022289,97.4514729 L11.3541159,97.4514729 Z M17.9928285,100.053133 L18.4326133,101.213235 L18.8316551,101.213235 L17.4625704,97.6439212 L17.0137982,97.6439212 L15.7016339,101.213235 L16.0737133,101.213235 L16.502114,100.053133 L17.9928285,100.053133 Z M16.6129589,99.7301807 C16.9173331,98.8701775 17.1408205,98.2507346 17.2288973,97.9656706 L17.2342897,97.9656706 C17.3091849,98.2200632 17.5087058,98.7246385 17.8861777,99.7301807 L16.6129589,99.7301807 Z M19.9407035,101.213235 L19.9407035,98.936933 L20.4889366,98.936933 L20.4889366,98.6404424 L19.9407035,98.6404424 L19.9407035,98.3192943 C19.9407035,97.9037264 20.0491518,97.7136837 20.3397453,97.7136837 C20.4140413,97.7136837 20.5260846,97.7233061 20.5973848,97.7413481 L20.5973848,97.4352351 C20.5344729,97.4147875 20.412843,97.4003539 20.3265637,97.4003539 C19.7447776,97.4003539 19.5931897,97.8502017 19.5931897,98.3006509 L19.5931897,98.6404424 L19.1564007,98.6404424 L19.1564007,98.936933 L19.5931897,98.936933 L19.5931897,101.213235 L19.9407035,101.213235 Z M21.1132631,101.213235 L21.4613761,101.213235 L21.4613761,99.9160136 C21.4613761,99.2857455 21.8172783,98.9585834 22.357123,98.9321218 L22.357123,98.5790995 C21.9299207,98.5959387 21.6057741,98.824471 21.4613761,99.1931297 C21.4613761,98.8996461 21.4553845,98.7180231 21.4487938,98.6404424 L21.1078707,98.6404424 C21.109069,98.7474917 21.1132631,98.9405414 21.1132631,99.3398716 L21.1132631,101.213235 Z M23.0341758,101.213235 L23.3816897,101.213235 L23.3816897,98.639841 L23.0341758,98.639841 L23.0341758,101.213235 Z M23.0341758,97.9758945 L23.3816897,97.9758945 L23.3816897,97.4514729 L23.0341758,97.4514729 L23.0341758,97.9758945 Z M26.0461622,100.442841 L26.0461622,100.442841 C25.923334,100.792856 25.7118299,100.974479 25.3553286,100.974479 C24.8502352,100.974479 24.57522,100.526435 24.57522,99.9262374 C24.57522,99.3098015 24.8652143,98.8797999 25.3768984,98.8797999 C25.7909192,98.8797999 25.9748619,99.1371995 26.0467613,99.4192565 L26.3954735,99.4192565 C26.3547305,99.0716468 26.0881035,98.5790995 25.3840884,98.5790995 C24.6105705,98.5790995 24.2127271,99.2231998 24.2127271,99.9388668 C24.2127271,100.782031 24.6686892,101.274578 25.3517336,101.274578 C25.9730644,101.274578 26.2768395,100.891486 26.3954735,100.442841 L26.0461622,100.442841 Z M29.0593468,99.4054242 C29.0593468,98.8310864 28.7160271,98.5797009 28.1012871,98.5790969 C27.3661156,98.5778967 27.1683922,99.0030871 27.1354383,99.3188225 L27.4763614,99.3188225 C27.5296868,99.1119406 27.6057803,98.8665691 28.0917005,98.8665691 C28.6387352,98.8665691 28.7148288,99.1805003 28.7148288,99.4240677 L28.7148288,99.6664322 L28.241491,99.6664322 C27.4613823,99.6664322 27.0108126,99.9262374 27.0108126,100.496365 C27.0108126,100.88487 27.2726463,101.274578 27.8831922,101.274578 C28.4074588,101.274578 28.6273512,101.0262 28.7172254,100.844576 C28.7256137,101.036423 28.7411919,101.153696 28.7621626,101.213235 L29.0952965,101.213235 C29.0797183,101.135053 29.0593468,100.921556 29.0593468,100.691821 L29.0593468,99.4054242 Z M28.7190229,100.015245 C28.7190229,100.530645 28.6237562,100.987108 27.930526,100.987108 C27.5842105,100.987108 27.371508,100.777821 27.371508,100.479526 C27.371508,100.073581 27.6950554,99.9274402 28.2474826,99.9274402 L28.7190229,99.9274402 L28.7190229,100.015245 Z M30.0893059,101.213235 L30.4368198,101.213235 L30.4368198,99.8781253 C30.4368198,99.3374659 30.6441297,98.8918279 31.2067427,98.8918279 C31.6357425,98.8918279 31.8112969,99.1732835 31.8112969,99.6002781 L31.8112969,101.213235 L32.1594099,101.213235 L32.1594099,99.5515646 C32.1594099,98.8533383 31.759769,98.5790995 31.2840345,98.5790995 C30.7609663,98.5790995 30.5470655,98.8551425 30.4368198,99.0987098 C30.4404147,99.0247375 30.4344231,98.7198273 30.423039,98.6404424 L30.0839135,98.6404424 C30.0893059,98.8431145 30.0893059,99.0638286 30.0893059,99.2887525 L30.0893059,101.213235 Z M37.9275405,101.213235 L38.2930291,101.213235 L38.2930291,97.6439212 L37.7513869,97.6439212 C37.2804457,98.7829744 36.614777,100.467498 36.5308943,100.765192 L36.5213077,100.765192 C36.3912896,100.338798 35.8208876,98.81545 35.3625288,97.6439212 L34.8089033,97.6439212 L34.8089033,101.213235 L35.1666029,101.213235 L35.1666029,99.7373975 C35.1666029,99.1251715 35.1552189,98.3114761 35.1282566,97.9013207 L35.1414381,97.9013207 C35.3056085,98.4726515 35.9970412,100.322561 36.3289768,101.213235 L36.674094,101.213235 C37.1144779,100.088014 37.7825433,98.4311549 37.9323337,97.9073348 L37.9491103,97.9073348 C37.9335321,98.2723851 37.9275405,98.9435484 37.9275405,99.6261384 L37.9275405,101.213235 Z M41.3523492,98.6404424 L41.0048354,98.6404424 L41.0048354,99.9719438 C41.0048354,100.665359 40.8005212,100.961248 40.2636723,100.961248 C39.7843428,100.961248 39.6699029,100.620254 39.6699029,100.261819 L39.6699029,98.6404424 L39.3265832,98.6404424 L39.3265832,100.338798 C39.3265832,101.097766 39.7807479,101.274578 40.1863804,101.274578 C40.6267643,101.274578 40.8862014,101.089347 41.0048354,100.794059 C41.0054346,100.982297 41.010827,101.145878 41.0210128,101.213235 L41.3577417,101.213235 C41.3565434,101.091151 41.3523492,100.714072 41.3523492,100.462687 L41.3523492,98.6404424 Z M42.0947107,100.491554 L42.0947107,100.491554 C42.1648126,100.95343 42.4979466,101.274578 43.1300623,101.274578 C43.7256291,101.274578 44.1013035,100.967864 44.1013035,100.507792 C44.1013035,100.122895 43.9293441,99.8757197 43.1678095,99.6959008 C42.6675094,99.5774249 42.5506728,99.4697741 42.5506728,99.2532698 C42.5506728,99.06443 42.6711043,98.8647649 43.0857243,98.8647649 C43.5099308,98.8647649 43.6621179,99.1161504 43.7046584,99.3098015 L44.0461807,99.3098015 C44.0078343,98.9471568 43.7280257,98.5790995 43.1001042,98.5790995 C42.4727818,98.5790995 42.2013615,98.921898 42.2013615,99.2809343 C42.2013615,99.6249356 42.3631352,99.8366286 43.0701461,100.005021 C43.6159825,100.134923 43.7388107,100.264225 43.7388107,100.533652 C43.7388107,100.797066 43.5674504,100.986507 43.1396489,100.986507 C42.7537887,100.986507 42.5267064,100.801877 42.444022,100.491554 L42.0947107,100.491554 Z M44.9239527,101.213235 L45.2714665,101.213235 L45.2714665,98.639841 L44.9239527,98.639841 L44.9239527,101.213235 Z M44.9239527,97.9758945 L45.2714665,97.9758945 L45.2714665,97.4514729 L44.9239527,97.4514729 L44.9239527,97.9758945 Z M47.935939,100.442841 L47.935939,100.442841 C47.81371,100.792856 47.6016067,100.974479 47.2457046,100.974479 C46.7406112,100.974479 46.465596,100.526435 46.465596,99.9262374 C46.465596,99.3098015 46.7549911,98.8797999 47.2672744,98.8797999 C47.6806961,98.8797999 47.8646387,99.1371995 47.9371373,99.4192565 L48.2858495,99.4192565 C48.2451065,99.0716468 47.9784795,98.5790995 47.2738652,98.5790995 C46.5009465,98.5790995 46.1031031,99.2231998 46.1031031,99.9388668 C46.1031031,100.782031 46.5590652,101.274578 47.2421096,101.274578 C47.8634404,101.274578 48.1672154,100.891486 48.2858495,100.442841 L47.935939,100.442841 Z M50.6878891,101.213235 L51.0623652,101.213235 L51.0623652,99.6983065 L51.9856735,99.6983065 C52.6914861,99.6983065 53.1684189,99.3248365 53.1684189,98.657883 C53.1684189,98.0173911 52.7004735,97.6439212 52.0186274,97.6439212 L50.6878891,97.6439212 L50.6878891,101.213235 Z M51.0623652,97.963265 L52.0090408,97.963265 C52.4679988,97.963265 52.7795629,98.2098394 52.7795629,98.6693096 C52.7795629,99.1029196 52.5339066,99.3783612 51.9892685,99.3783612 L51.0623652,99.3783612 L51.0623652,97.963265 Z M55.9341497,99.9803634 C55.9401413,99.9124052 55.9401413,99.8432441 55.9401413,99.7680689 C55.9401413,99.255074 55.6747127,98.5790995 54.8526627,98.5790995 C54.0755499,98.5790995 53.6956813,99.2015494 53.6956813,99.9502934 C53.6956813,100.608226 54.0162328,101.274578 54.8227046,101.274578 C55.4985591,101.274578 55.7771693,100.864423 55.883221,100.529442 L55.531513,100.529442 C55.4422379,100.729709 55.2900508,100.973878 54.8346878,100.973878 C54.3595525,100.973878 54.0527817,100.580561 54.0485876,99.9803634 L55.9341497,99.9803634 Z M54.0641658,99.7145443 L54.0641658,99.7145443 C54.1162929,99.215983 54.3421768,98.8707789 54.8442744,98.8707789 C55.3260005,98.8707789 55.5782476,99.2442488 55.5836401,99.7145443 L54.0641658,99.7145443 Z M56.7597947,101.213235 L57.1073085,101.213235 L57.1073085,99.9160136 C57.1073085,99.2857455 57.4632106,98.9585834 58.0030554,98.9321218 L58.0030554,98.5790995 C57.575853,98.5959387 57.2517065,98.824471 57.1073085,99.1931297 C57.1073085,98.8996461 57.1013169,98.7180231 57.0953253,98.6404424 L56.7544022,98.6404424 C56.7550014,98.7474917 56.7597947,98.9405414 56.7597947,99.3398716 L56.7597947,101.213235 Z M59.2774725,101.213235 L59.2774725,98.936933 L59.8263047,98.936933 L59.8263047,98.6404424 L59.2774725,98.6404424 L59.2774725,98.3192943 C59.2774725,97.9037264 59.3859208,97.7136837 59.6765143,97.7136837 C59.7508103,97.7136837 59.8628536,97.7233061 59.9341538,97.7413481 L59.9341538,97.4352351 C59.8712418,97.4147875 59.749612,97.4003539 59.6633327,97.4003539 C59.0821458,97.4003539 58.9299587,97.8502017 58.9299587,98.3006509 L58.9299587,98.6404424 L58.4931697,98.6404424 L58.4931697,98.936933 L58.9299587,98.936933 L58.9299587,101.213235 L59.2774725,101.213235 Z M61.4284633,98.5790995 C60.6579413,98.5790995 60.2307389,99.1817031 60.2307389,99.928643 C60.2307389,100.703849 60.6759161,101.274578 61.4009019,101.274578 C62.1887996,101.274578 62.6040188,100.649121 62.6040188,99.9220276 C62.6040188,99.1137448 62.1372717,98.5790995 61.4284633,98.5790995 L61.4284633,98.5790995 Z M61.4104885,98.8797999 C61.9491349,98.8797999 62.2415259,99.3332561 62.2415259,99.9274402 C62.2415259,100.546282 61.9461391,100.973878 61.4212734,100.973878 C60.9059943,100.973878 60.5932318,100.517414 60.5932318,99.9268388 C60.5932318,99.3230323 60.8640529,98.8797999 61.4104885,98.8797999 L61.4104885,98.8797999 Z M63.4296637,101.213235 L63.7777767,101.213235 L63.7777767,99.9160136 C63.7777767,99.2857455 64.1336788,98.9585834 64.6735236,98.9321218 L64.6735236,98.5790995 C64.2463212,98.5959387 63.9221747,98.824471 63.7777767,99.1931297 C63.7777767,98.8996461 63.7717851,98.7180231 63.7657935,98.6404424 L63.4248704,98.6404424 C63.4254696,98.7474917 63.4296637,98.9405414 63.4296637,99.3398716 L63.4296637,101.213235 Z M65.3296057,101.213235 L65.6759213,101.213235 L65.6759213,99.7939292 C65.6759213,99.2845427 65.9018053,98.8918279 66.3685523,98.8918279 C66.8167253,98.8918279 66.9227769,99.2165844 66.9227769,99.5720123 L66.9227769,101.213235 L67.2637,101.213235 L67.2637,99.7331877 C67.2637,99.2538712 67.4728075,98.8906251 67.9425503,98.8906251 C68.3925208,98.8906251 68.5105557,99.2388362 68.5105557,99.5623899 L68.5105557,101.213235 L68.8550737,101.213235 L68.8550737,99.5214946 C68.8550737,98.8142472 68.4458462,98.5790995 68.0336229,98.5790995 C67.5800574,98.5790995 67.3254137,98.809436 67.1906023,99.0662342 C67.0881456,98.7613239 66.8161261,98.5790995 66.44884,98.5790995 C66.0246334,98.5790995 65.789762,98.8250724 65.6759213,99.0698426 C65.6795162,98.9297162 65.6681322,98.7228343 65.6621405,98.6404424 L65.3248125,98.6404424 C65.3296057,98.8443173 65.3296057,99.082472 65.3296057,99.3037875 L65.3296057,101.213235 Z M71.7130755,99.4054242 C71.7130755,98.8310864 71.3703549,98.5797009 70.7550158,98.5790969 C70.0204434,98.5778967 69.8221208,99.0030871 69.7891669,99.3188225 L70.1306892,99.3188225 C70.1834154,99.1119406 70.259509,98.8665691 70.7454292,98.8665691 C71.2924639,98.8665691 71.3685574,99.1805003 71.3685574,99.4240677 L71.3685574,99.6664322 L70.8958188,99.6664322 C70.115111,99.6664322 69.6645413,99.9262374 69.6645413,100.496365 C69.6645413,100.88487 69.9269742,101.274578 70.53752,101.274578 C71.0611874,101.274578 71.2810798,101.0262 71.3709541,100.844576 C71.3799415,101.036423 71.3955197,101.153696 71.4164904,101.213235 L71.7496243,101.213235 C71.7340461,101.135053 71.7130755,100.921556 71.7130755,100.691821 L71.7130755,99.4054242 Z M71.3733507,100.015245 C71.3733507,100.530645 71.2774848,100.987108 70.5842546,100.987108 C70.2385383,100.987108 70.0258359,100.777821 70.0258359,100.479526 C70.0258359,100.073581 70.3487841,99.9274402 70.9018104,99.9274402 L71.3733507,99.9274402 L71.3733507,100.015245 Z M72.7430346,101.213235 L73.0911476,101.213235 L73.0911476,99.8781253 C73.0911476,99.3374659 73.2978584,98.8918279 73.8610705,98.8918279 C74.2900703,98.8918279 74.4656247,99.1732835 74.4656247,99.6002781 L74.4656247,101.213235 L74.8131386,101.213235 L74.8131386,99.5515646 C74.8131386,98.8533383 74.4140968,98.5790995 73.9377632,98.5790995 C73.4146949,98.5790995 73.2013933,98.8551425 73.0911476,99.0987098 C73.0947425,99.0247375 73.0887509,98.7198273 73.0773669,98.6404424 L72.7382413,98.6404424 C72.7430346,98.8431145 72.7430346,99.0638286 72.7430346,99.2887525 L72.7430346,101.213235 Z M77.4728177,100.442841 L77.4728177,100.442841 C77.3499896,100.792856 77.1384855,100.974479 76.7819842,100.974479 C76.2768908,100.974479 76.0018755,100.526435 76.0018755,99.9262374 C76.0018755,99.3098015 76.2918699,98.8797999 76.803554,98.8797999 C77.2175748,98.8797999 77.4015175,99.1371995 77.4734169,99.4192565 L77.8221291,99.4192565 C77.7813861,99.0716468 77.5147591,98.5790995 76.810744,98.5790995 C76.0378253,98.5790995 75.6393827,99.2231998 75.6393827,99.9388668 C75.6393827,100.782031 76.0959439,101.274578 76.7783892,101.274578 C77.39972,101.274578 77.703495,100.891486 77.8221291,100.442841 L77.4728177,100.442841 Z M80.6741392,99.9803634 C80.6801308,99.9124052 80.6801308,99.8432441 80.6801308,99.7680689 C80.6801308,99.255074 80.4147021,98.5790995 79.5926522,98.5790995 C78.8161385,98.5790995 78.4356707,99.2015494 78.4356707,99.9502934 C78.4356707,100.608226 78.7562223,101.274578 79.5626941,101.274578 C80.2385486,101.274578 80.5171588,100.864423 80.6232104,100.529442 L80.2715025,100.529442 C80.1822274,100.729709 80.0300403,100.973878 79.5746773,100.973878 C79.099542,100.973878 78.7927712,100.580561 78.788577,99.9803634 L80.6741392,99.9803634 Z M78.8041552,99.7145443 L78.8041552,99.7145443 C78.8562823,99.215983 79.0821663,98.8707789 79.5842639,98.8707789 C80.06599,98.8707789 80.3182371,99.2442488 80.3236295,99.7145443 L78.8041552,99.7145443 Z M84.3098529,99.5888515 C84.9839099,99.5888515 85.1462828,99.8227964 85.1462828,100.374281 L85.1462828,100.458477 C85.1462828,100.777821 85.1354979,101.059878 85.2020048,101.213235 L85.569291,101.213235 C85.5051807,101.070703 85.5213581,100.745345 85.5213581,100.496967 L85.5213581,100.352631 C85.5213581,99.7398031 85.269111,99.510068 84.9311837,99.4276761 C85.3092548,99.3368645 85.5818734,99.0481921 85.5818734,98.5893233 C85.5818734,98.0306219 85.195414,97.6439212 84.4674325,97.6439212 L83.1157235,97.6439212 L83.1157235,101.213235 L83.4866046,101.213235 L83.4866046,99.5888515 L84.3098529,99.5888515 Z M83.4866046,97.963265 L84.3895414,97.963265 C84.920998,97.963265 85.1936166,98.1978114 85.1936166,98.6091695 C85.1936166,99.0481921 84.9215971,99.2689063 84.3224353,99.2689063 L83.4866046,99.2689063 L83.4866046,97.963265 Z M86.5243549,101.213235 L86.8718687,101.213235 L86.8718687,98.639841 L86.5243549,98.639841 L86.5243549,101.213235 Z M86.5243549,97.9758945 L86.8718687,97.9758945 L86.8718687,97.4514729 L86.5243549,97.4514729 L86.5243549,97.9758945 Z M89.9671385,99.3849766 C89.9671385,99.1378009 89.9755268,98.7583169 89.9767251,98.6404424 L89.6483845,98.6404424 C89.642992,98.6981769 89.6358021,98.8737859 89.6304096,99.0084997 C89.5633035,98.818457 89.3416136,98.5790995 88.824537,98.5790995 C88.2014087,98.5790995 87.702307,99.0752552 87.702307,99.928643 C87.702307,100.706254 88.1576699,101.207823 88.7831948,101.207823 C89.2415536,101.207823 89.4902058,101.035221 89.6304096,100.721891 L89.6304096,100.962451 C89.6304096,101.587908 89.4608468,101.992049 88.820942,101.992049 C88.4632425,101.992049 88.1966155,101.831475 88.1103362,101.509726 L87.7556324,101.509726 C87.8113544,101.881993 88.0761839,102.285533 88.8065622,102.285533 C89.6076415,102.285533 89.9671385,101.836286 89.9671385,101.012367 L89.9671385,99.3849766 Z M88.8592884,98.8822055 C89.4542561,98.8822055 89.6387979,99.243046 89.6387979,99.8763211 C89.6387979,100.501177 89.4560535,100.903514 88.8437102,100.903514 C88.3757648,100.903514 88.0665973,100.494561 88.0665973,99.9142094 C88.0665973,99.3410744 88.3122537,98.8822055 88.8592884,98.8822055 L88.8592884,98.8822055 Z M90.9887094,97.4514729 L90.9887094,101.213235 L91.3362232,101.213235 L91.3362232,99.7909222 C91.3362232,99.2021508 91.5932636,98.8918279 92.0887704,98.8918279 C92.4979979,98.8918279 92.7112995,99.1594513 92.7112995,99.6357608 L92.7112995,101.213235 L93.0582142,101.213235 L93.0582142,99.5744179 C93.0582142,98.782373 92.5698974,98.5790995 92.1768472,98.5790995 C91.7244801,98.5790995 91.4764271,98.7998136 91.3362232,99.0481921 L91.3362232,97.4514729 L90.9887094,97.4514729 Z M93.6957224,98.936933 L94.1660644,98.936933 L94.1660644,100.646114 C94.1660644,101.065291 94.350007,101.249319 94.7172932,101.249319 C94.8341298,101.249319 94.9725361,101.2409 95.071997,101.20241 L95.071997,100.926367 C94.9935068,100.948619 94.8910501,100.95343 94.820349,100.95343 C94.575891,100.95343 94.5135782,100.804884 94.5135782,100.534254 L94.5135782,98.936933 L95.1145375,98.936933 L95.1145375,98.6404424 L94.5135782,98.6404424 L94.5135782,97.8574185 L94.1660644,97.8574185 L94.1660644,98.6404424 L93.6957224,98.6404424 L93.6957224,98.936933 Z M95.6543823,100.491554 L95.6543823,100.491554 C95.7244842,100.95343 96.0576181,101.274578 96.690333,101.274578 C97.2853006,101.274578 97.6609751,100.967864 97.6609751,100.507792 C97.6609751,100.122895 97.4896148,99.8757197 96.727481,99.6959008 C96.2277801,99.5774249 96.1109435,99.4697741 96.1109435,99.2532698 C96.1109435,99.06443 96.2313751,98.8647649 96.6453959,98.8647649 C97.0702016,98.8647649 97.2223887,99.1161504 97.2649291,99.3098015 L97.6058522,99.3098015 C97.5675058,98.9471568 97.2882965,98.5790995 96.6597757,98.5790995 C96.0324533,98.5790995 95.7610331,98.921898 95.7610331,99.2809343 C95.7610331,99.6249356 95.9228067,99.8366286 96.6298176,100.005021 C97.175654,100.134923 97.2984822,100.264225 97.2984822,100.533652 C97.2984822,100.797066 97.1277211,100.986507 96.6999196,100.986507 C96.3134602,100.986507 96.0863779,100.801877 96.0042927,100.491554 L95.6543823,100.491554 Z M102.028865,100.053133 L102.468649,101.213235 L102.867691,101.213235 L101.498606,97.6439212 L101.049834,97.6439212 L99.7376698,101.213235 L100.109749,101.213235 L100.53815,100.053133 L102.028865,100.053133 Z M100.648396,99.7301807 C100.953369,98.8701775 101.176856,98.2507346 101.264933,97.9656706 L101.270326,97.9656706 C101.345221,98.2200632 101.544742,98.7246385 101.922214,99.7301807 L100.648396,99.7301807 Z M103.456068,100.491554 L103.456068,100.491554 C103.526769,100.95343 103.859304,101.274578 104.492019,101.274578 C105.086986,101.274578 105.462661,100.967864 105.462661,100.507792 C105.462661,100.122895 105.2913,99.8757197 104.529167,99.6959008 C104.029466,99.5774249 103.912629,99.4697741 103.912629,99.2532698 C103.912629,99.06443 104.033061,98.8647649 104.447082,98.8647649 C104.871887,98.8647649 105.024074,99.1161504 105.066615,99.3098015 L105.407538,99.3098015 C105.369192,98.9471568 105.089982,98.5790995 104.462061,98.5790995 C103.834139,98.5790995 103.562719,98.921898 103.562719,99.2809343 C103.562719,99.6249356 103.724492,99.8366286 104.432102,100.005021 C104.97734,100.134923 105.100168,100.264225 105.100168,100.533652 C105.100168,100.797066 104.929407,100.986507 104.501605,100.986507 C104.115745,100.986507 103.888663,100.801877 103.805978,100.491554 L103.456068,100.491554 Z M106.088186,100.491554 L106.088186,100.491554 C106.158288,100.95343 106.491422,101.274578 107.124136,101.274578 C107.719104,101.274578 108.094778,100.967864 108.094778,100.507792 C108.094778,100.122895 107.922819,99.8757197 107.161284,99.6959008 C106.661583,99.5774249 106.544148,99.4697741 106.544148,99.2532698 C106.544148,99.06443 106.664579,98.8647649 107.079199,98.8647649 C107.503406,98.8647649 107.655593,99.1161504 107.698133,99.3098015 L108.039656,99.3098015 C108.001309,98.9471568 107.721501,98.5790995 107.093579,98.5790995 C106.466257,98.5790995 106.194836,98.921898 106.194836,99.2809343 C106.194836,99.6249356 106.35661,99.8366286 107.063621,100.005021 C107.609457,100.134923 107.732286,100.264225 107.732286,100.533652 C107.732286,100.797066 107.560925,100.986507 107.133124,100.986507 C106.747264,100.986507 106.520181,100.801877 106.437497,100.491554 L106.088186,100.491554 Z M109.922222,98.5790995 C109.151101,98.5790995 108.724498,99.1817031 108.724498,99.928643 C108.724498,100.703849 109.169675,101.274578 109.894661,101.274578 C110.681959,101.274578 111.097777,100.649121 111.097777,99.9220276 C111.097777,99.1137448 110.63103,98.5790995 109.922222,98.5790995 L109.922222,98.5790995 Z M109.904247,98.8797999 C110.442894,98.8797999 110.735285,99.3332561 110.735285,99.9274402 C110.735285,100.546282 110.439299,100.973878 109.914433,100.973878 C109.399154,100.973878 109.08699,100.517414 109.08699,99.9268388 C109.08699,99.3230323 109.357212,98.8797999 109.904247,98.8797999 L109.904247,98.8797999 Z M113.59089,100.442841 L113.59089,100.442841 C113.468061,100.792856 113.256557,100.974479 112.900056,100.974479 C112.394963,100.974479 112.119947,100.526435 112.119947,99.9262374 C112.119947,99.3098015 112.409942,98.8797999 112.921626,98.8797999 C113.335647,98.8797999 113.519589,99.1371995 113.591489,99.4192565 L113.940201,99.4192565 C113.899458,99.0716468 113.632831,98.5790995 112.928816,98.5790995 C112.155298,98.5790995 111.757455,99.2231998 111.757455,99.9388668 C111.757455,100.782031 112.213417,101.274578 112.896461,101.274578 C113.517792,101.274578 113.821567,100.891486 113.940201,100.442841 L113.59089,100.442841 Z M114.783222,101.213235 L115.130735,101.213235 L115.130735,98.639841 L114.783222,98.639841 L114.783222,101.213235 Z M114.783222,97.9758945 L115.130735,97.9758945 L115.130735,97.4514729 L114.783222,97.4514729 L114.783222,97.9758945 Z M117.984543,99.4054242 C117.984543,98.8310864 117.641822,98.5797009 117.026483,98.5790969 C116.291911,98.5778967 116.093588,99.0030871 116.060634,99.3188225 L116.402157,99.3188225 C116.454883,99.1119406 116.530976,98.8665691 117.016897,98.8665691 C117.563931,98.8665691 117.640025,99.1805003 117.640025,99.4240677 L117.640025,99.6664322 L117.167286,99.6664322 C116.386579,99.6664322 115.936608,99.9262374 115.936608,100.496365 C115.936608,100.88487 116.198442,101.274578 116.808988,101.274578 C117.332655,101.274578 117.552547,101.0262 117.642422,100.844576 C117.651409,101.036423 117.666987,101.153696 117.687958,101.213235 L118.021092,101.213235 C118.005514,101.135053 117.984543,100.921556 117.984543,100.691821 L117.984543,99.4054242 Z M117.644818,100.015245 C117.644818,100.530645 117.548952,100.987108 116.855722,100.987108 C116.510006,100.987108 116.297303,100.777821 116.297303,100.479526 C116.297303,100.073581 116.620252,99.9274402 117.173278,99.9274402 L117.644818,99.9274402 L117.644818,100.015245 Z M118.616659,98.936933 L119.087001,98.936933 L119.087001,100.646114 C119.087001,101.065291 119.271543,101.249319 119.638829,101.249319 C119.755066,101.249319 119.894072,101.2409 119.992933,101.20241 L119.992933,100.926367 C119.915042,100.948619 119.812586,100.95343 119.741285,100.95343 C119.497427,100.95343 119.435114,100.804884 119.435114,100.534254 L119.435114,98.936933 L120.036073,98.936933 L120.036073,98.6404424 L119.435114,98.6404424 L119.435114,97.8574185 L119.087001,97.8574185 L119.087001,98.6404424 L118.616659,98.6404424 L118.616659,98.936933 Z M120.747877,101.213235 L121.095391,101.213235 L121.095391,98.639841 L120.747877,98.639841 L120.747877,101.213235 Z M120.747877,97.9758945 L121.095391,97.9758945 L121.095391,97.4514729 L120.747877,97.4514729 L120.747877,97.9758945 Z M123.122355,98.5790995 C122.351234,98.5790995 121.924631,99.1817031 121.924631,99.928643 C121.924631,100.703849 122.369808,101.274578 123.094794,101.274578 C123.882692,101.274578 124.297911,100.649121 124.297911,99.9220276 C124.297911,99.1137448 123.831164,98.5790995 123.122355,98.5790995 L123.122355,98.5790995 Z M123.10438,98.8797999 C123.643027,98.8797999 123.935418,99.3332561 123.935418,99.9274402 C123.935418,100.546282 123.639432,100.973878 123.114566,100.973878 C122.599287,100.973878 122.287124,100.517414 122.287124,99.9268388 C122.287124,99.3230323 122.557346,98.8797999 123.10438,98.8797999 L123.10438,98.8797999 Z M125.124754,101.213235 L125.472268,101.213235 L125.472268,99.8781253 C125.472268,99.3374659 125.678979,98.8918279 126.242191,98.8918279 C126.671191,98.8918279 126.846745,99.1732835 126.846745,99.6002781 L126.846745,101.213235 L127.194259,101.213235 L127.194259,99.5515646 C127.194259,98.8533383 126.795217,98.5790995 126.318883,98.5790995 C125.795815,98.5790995 125.582514,98.8551425 125.472268,99.0987098 C125.475863,99.0247375 125.469871,98.7198273 125.458487,98.6404424 L125.119362,98.6404424 C125.124754,98.8431145 125.124754,99.0638286 125.124754,99.2887525 L125.124754,101.213235 Z" id="Fill-36" fill="#000000"></path>
            </g>
        </g>
    </g>
</svg>